<svg id="canvas" width="709.008" height="70.034" viewBox="180.739 276.879 709.008 70.034" preserveAspectRatio="xMidYMid meet" class="h-full w-full max-w-4xl text-primary transition-opacity duration-300 opacity-100" xmlns="http://www.w3.org/2000/svg"><g id="canvas-strokes"><path d="M 189.79,284.64 C 189.63 285.16, 189.70 285.79, 189.56 287.21 C 189.43 288.63, 189.38 289.57, 189.12 291.74 C 188.86 293.91, 188.72 295.31, 188.26 298.06 C 187.80 300.81, 187.41 302.43, 186.84 305.48 C 186.26 308.53, 185.92 310.23, 185.38 313.32 C 184.83 316.42, 184.44 318.06, 184.11 320.97 C 183.79 323.87, 183.74 325.29, 183.74 327.87 C 183.73 330.45, 183.79 331.73, 184.09 333.87 C 184.39 336.01, 184.67 337.01, 185.25 338.56 C 185.82 340.12, 186.15 340.67, 186.95 341.64 C 187.76 342.61, 188.25 342.97, 189.27 343.42 C 190.29 343.87, 190.88 343.95, 192.05 343.90 C 193.21 343.84, 193.80 343.66, 195.10 343.13 C 196.41 342.60, 197.10 342.33, 198.57 341.24 C 200.04 340.15, 200.76 339.44, 202.46 337.69 C 204.16 335.94, 205.19 334.86, 207.06 332.50 C 208.93 330.14, 209.96 328.80, 211.82 325.87 C 213.69 322.94, 214.60 321.14, 216.39 317.87 C 218.17 314.59, 219.12 312.80, 220.74 309.49 C 222.35 306.19, 223.11 304.41, 224.47 301.35 C 225.83 298.28, 226.47 296.80, 227.53 294.17 C 228.59 291.53, 229.13 290.27, 229.77 288.19 C 230.40 286.11, 230.49 285.14, 230.72 283.76 C 230.94 282.37, 230.88 282.01, 230.89 281.27 C 230.91 280.53, 230.87 280.31, 230.78 280.07 C 230.70 279.82, 230.59 279.82, 230.46 280.04 C 230.34 280.26, 230.33 280.48, 230.16 281.17 C 229.98 281.87, 229.92 282.20, 229.59 283.52 C 229.26 284.85, 229.17 285.76, 228.50 287.79 C 227.83 289.81, 227.26 291.03, 226.23 293.65 C 225.19 296.26, 224.64 297.79, 223.33 300.85 C 222.02 303.92, 221.27 305.68, 219.67 308.97 C 218.06 312.25, 217.11 314.04, 215.32 317.28 C 213.52 320.51, 212.59 322.29, 210.70 325.14 C 208.80 327.99, 207.73 329.24, 205.84 331.52 C 203.96 333.79, 202.91 334.84, 201.27 336.54 C 199.63 338.24, 198.98 338.96, 197.64 340.01 C 196.29 341.06, 195.67 341.28, 194.53 341.80 C 193.39 342.32, 192.90 342.49, 191.94 342.60 C 190.98 342.71, 190.54 342.69, 189.72 342.36 C 188.90 342.03, 188.49 341.78, 187.83 340.94 C 187.17 340.09, 186.91 339.60, 186.43 338.15 C 185.95 336.70, 185.70 335.74, 185.45 333.69 C 185.19 331.63, 185.14 330.39, 185.16 327.87 C 185.18 325.36, 185.22 323.99, 185.54 321.13 C 185.86 318.27, 186.22 316.64, 186.77 313.57 C 187.33 310.50, 187.67 308.82, 188.31 305.78 C 188.96 302.74, 189.50 301.14, 190.01 298.37 C 190.51 295.59, 190.65 294.13, 190.83 291.91 C 191.00 289.68, 190.96 288.69, 190.87 287.23 C 190.78 285.77, 190.59 285.13, 190.38 284.61 C 190.16 284.10, 189.95 284.13, 189.79 284.64" style="stroke: black; fill: black;"/><path d="M 227.34,319.58 C 227.12 319.54, 226.98 319.54, 226.56 319.80 C 226.13 320.05, 225.83 320.09, 225.23 320.87 C 224.63 321.65, 224.34 322.20, 223.56 323.68 C 222.79 325.16, 222.22 326.24, 221.35 328.28 C 220.49 330.31, 219.98 331.91, 219.23 333.86 C 218.49 335.80, 218.14 336.60, 217.63 338.00 C 217.13 339.40, 216.80 340.25, 216.71 340.86 C 216.61 341.48, 216.76 341.54, 217.16 341.07 C 217.56 340.60, 217.97 339.80, 218.71 338.50 C 219.46 337.20, 219.97 336.45, 220.87 334.56 C 221.77 332.67, 222.34 331.09, 223.21 329.07 C 224.08 327.06, 224.56 325.97, 225.23 324.49 C 225.89 323.02, 226.12 322.49, 226.53 321.71 C 226.94 320.93, 227.06 320.92, 227.28 320.58 C 227.50 320.24, 227.63 320.22, 227.64 320.02 C 227.65 319.82, 227.56 319.63, 227.34 319.58" style="stroke: black; fill: black;"/><path d="M 241.76,289.69 C 241.59 289.59, 241.16 289.69, 241.05 289.87 C 240.94 290.05, 241.05 290.48, 241.23 290.59 C 241.41 290.70, 241.83 290.59, 241.94 290.41 C 242.05 290.23, 241.94 289.80, 241.76 289.69" style="stroke: black; fill: black;"/><path d="M 254.50,320.81 C 254.14 320.55, 253.63 320.12, 252.59 320.07 C 251.54 320.01, 250.71 319.97, 249.27 320.54 C 247.82 321.10, 246.84 321.60, 245.37 322.88 C 243.89 324.17, 243.16 325.18, 241.90 326.94 C 240.63 328.71, 239.92 329.80, 239.04 331.71 C 238.17 333.63, 237.73 334.80, 237.52 336.53 C 237.30 338.26, 237.31 339.16, 237.95 340.37 C 238.60 341.58, 239.19 342.15, 240.75 342.57 C 242.30 342.99, 243.44 343.01, 245.73 342.49 C 248.02 341.96, 249.48 341.30, 252.20 339.94 C 254.93 338.59, 256.45 337.63, 259.36 335.69 C 262.27 333.76, 263.92 332.55, 266.75 330.27 C 269.58 327.98, 271.02 326.61, 273.50 324.28 C 275.98 321.94, 277.25 320.74, 279.15 318.59 C 281.06 316.44, 281.86 315.36, 283.03 313.52 C 284.20 311.69, 284.58 310.71, 284.99 309.42 C 285.41 308.13, 285.36 307.49, 285.09 307.07 C 284.83 306.64, 284.25 306.70, 283.65 307.30 C 283.06 307.89, 282.80 308.50, 282.11 310.03 C 281.42 311.56, 281.09 312.69, 280.20 314.94 C 279.32 317.19, 278.77 318.68, 277.69 321.29 C 276.60 323.90, 275.91 325.44, 274.78 327.98 C 273.64 330.52, 272.95 331.95, 272.04 334.01 C 271.12 336.07, 270.77 336.98, 270.18 338.28 C 269.60 339.59, 269.26 340.04, 269.11 340.54 C 268.97 341.03, 269.06 341.11, 269.45 340.75 C 269.84 340.40, 270.28 339.98, 271.06 338.76 C 271.85 337.54, 272.33 336.68, 273.38 334.66 C 274.43 332.64, 275.11 331.21, 276.30 328.68 C 277.49 326.14, 278.19 324.60, 279.32 321.99 C 280.46 319.38, 281.11 317.91, 281.98 315.63 C 282.86 313.36, 283.20 312.19, 283.68 310.62 C 284.16 309.05, 284.19 308.46, 284.40 307.77 C 284.61 307.08, 284.81 306.92, 284.72 307.17 C 284.64 307.42, 284.53 307.88, 283.97 309.01 C 283.41 310.13, 283.10 311.07, 281.92 312.80 C 280.75 314.53, 279.96 315.55, 278.10 317.66 C 276.24 319.77, 275.05 321.03, 272.62 323.35 C 270.19 325.68, 268.77 327.05, 265.96 329.28 C 263.16 331.52, 261.50 332.71, 258.61 334.55 C 255.72 336.39, 254.14 337.21, 251.49 338.49 C 248.84 339.77, 247.44 340.36, 245.34 340.94 C 243.24 341.53, 242.29 341.63, 241.00 341.42 C 239.71 341.21, 239.30 340.84, 238.87 339.91 C 238.44 338.98, 238.54 338.26, 238.87 336.76 C 239.20 335.26, 239.63 334.18, 240.51 332.41 C 241.39 330.65, 242.08 329.59, 243.28 327.94 C 244.48 326.30, 245.19 325.37, 246.52 324.19 C 247.84 323.01, 248.69 322.62, 249.91 322.05 C 251.14 321.49, 251.75 321.49, 252.64 321.36 C 253.53 321.23, 254.00 321.51, 254.37 321.41 C 254.74 321.30, 254.85 321.08, 254.50 320.81" style="stroke: black; fill: black;"/><path d="M 269.18,326.92 C 269.51 327.10, 269.87 327.25, 270.80 327.27 C 271.74 327.29, 272.25 327.24, 273.87 327.02 C 275.49 326.79, 276.69 326.64, 278.91 326.15 C 281.13 325.65, 282.60 325.22, 284.99 324.55 C 287.38 323.89, 288.64 323.48, 290.85 322.81 C 293.06 322.14, 294.43 321.73, 296.02 321.20 C 297.62 320.68, 298.23 320.45, 298.81 320.20 C 299.39 319.95, 299.35 319.71, 298.93 319.96 C 298.51 320.20, 297.86 320.39, 296.72 321.43 C 295.57 322.46, 294.64 323.39, 293.22 325.13 C 291.79 326.87, 290.81 328.11, 289.59 330.13 C 288.37 332.15, 287.69 333.38, 287.13 335.22 C 286.58 337.06, 286.51 338.08, 286.82 339.34 C 287.14 340.59, 287.53 341.08, 288.70 341.49 C 289.86 341.90, 290.83 341.83, 292.65 341.38 C 294.46 340.93, 295.72 340.41, 297.75 339.24 C 299.77 338.07, 300.96 337.17, 302.77 335.53 C 304.58 333.89, 305.55 332.85, 306.81 331.03 C 308.06 329.21, 308.59 328.14, 309.03 326.45 C 309.47 324.75, 309.41 323.82, 308.98 322.55 C 308.56 321.28, 308.00 320.76, 306.91 320.08 C 305.83 319.40, 304.95 319.23, 303.57 319.15 C 302.18 319.07, 301.24 319.26, 299.97 319.67 C 298.71 320.09, 298.05 320.64, 297.24 321.25 C 296.43 321.87, 296.12 322.37, 295.92 322.75 C 295.71 323.13, 295.84 323.24, 296.23 323.15 C 296.62 323.07, 297.04 322.71, 297.89 322.33 C 298.74 321.94, 299.33 321.57, 300.46 321.23 C 301.59 320.90, 302.36 320.67, 303.53 320.64 C 304.71 320.62, 305.44 320.66, 306.33 321.11 C 307.21 321.55, 307.66 321.88, 307.95 322.88 C 308.24 323.87, 308.25 324.63, 307.77 326.08 C 307.30 327.54, 306.79 328.51, 305.56 330.14 C 304.34 331.77, 303.39 332.75, 301.64 334.26 C 299.89 335.76, 298.72 336.55, 296.83 337.68 C 294.95 338.81, 293.78 339.32, 292.20 339.90 C 290.62 340.48, 289.83 340.72, 288.94 340.57 C 288.06 340.42, 287.87 340.14, 287.79 339.17 C 287.71 338.20, 287.87 337.33, 288.54 335.72 C 289.21 334.11, 289.89 332.98, 291.15 331.12 C 292.41 329.26, 293.48 328.15, 294.84 326.43 C 296.20 324.71, 297.02 323.76, 297.93 322.53 C 298.84 321.30, 299.24 320.89, 299.41 320.28 C 299.57 319.67, 299.49 319.60, 298.73 319.50 C 297.98 319.40, 297.32 319.44, 295.65 319.79 C 293.98 320.13, 292.62 320.62, 290.39 321.23 C 288.17 321.84, 286.91 322.24, 284.53 322.85 C 282.15 323.46, 280.69 323.79, 278.49 324.29 C 276.30 324.79, 275.12 324.97, 273.56 325.33 C 272.00 325.69, 271.55 325.87, 270.68 326.08 C 269.81 326.28, 269.50 326.19, 269.20 326.36 C 268.90 326.53, 268.86 326.74, 269.18 326.92" style="stroke: black; fill: black;"/><path d="M 320.33,326.24 C 320.06 326.38, 319.89 326.70, 319.57 327.19 C 319.25 327.67, 319.06 327.94, 318.74 328.66 C 318.41 329.39, 318.29 329.92, 317.95 330.79 C 317.60 331.66, 317.35 332.09, 316.99 333.01 C 316.63 333.92, 316.35 334.61, 316.16 335.36 C 315.97 336.12, 315.98 336.50, 316.04 336.79 C 316.09 337.08, 316.11 337.12, 316.44 336.82 C 316.77 336.52, 316.99 336.26, 317.68 335.31 C 318.38 334.36, 318.88 333.52, 319.92 332.09 C 320.96 330.65, 321.61 329.62, 322.87 328.13 C 324.12 326.65, 324.84 325.86, 326.18 324.67 C 327.53 323.47, 328.30 322.93, 329.60 322.15 C 330.90 321.37, 331.56 321.14, 332.69 320.76 C 333.83 320.38, 334.29 320.39, 335.28 320.24 C 336.27 320.10, 336.80 320.09, 337.65 320.06 C 338.50 320.03, 338.87 320.16, 339.52 320.12 C 340.16 320.07, 340.60 320.00, 340.87 319.84 C 341.15 319.68, 341.14 319.49, 340.89 319.32 C 340.63 319.15, 340.23 319.11, 339.58 318.98 C 338.93 318.86, 338.53 318.71, 337.63 318.71 C 336.73 318.71, 336.16 318.81, 335.09 318.98 C 334.02 319.15, 333.54 319.16, 332.30 319.55 C 331.06 319.94, 330.32 320.14, 328.90 320.93 C 327.47 321.72, 326.65 322.27, 325.17 323.47 C 323.70 324.68, 322.90 325.45, 321.52 326.94 C 320.14 328.42, 319.32 329.39, 318.25 330.89 C 317.19 332.39, 316.69 333.30, 316.18 334.44 C 315.67 335.58, 315.63 336.03, 315.69 336.58 C 315.75 337.12, 316.07 337.26, 316.46 337.14 C 316.86 337.03, 317.22 336.70, 317.65 336.01 C 318.09 335.31, 318.25 334.59, 318.63 333.67 C 319.01 332.75, 319.22 332.29, 319.55 331.42 C 319.88 330.54, 320.04 330.01, 320.29 329.27 C 320.54 328.53, 320.67 328.27, 320.80 327.71 C 320.92 327.15, 321.02 326.78, 320.93 326.48 C 320.84 326.19, 320.60 326.10, 320.33 326.24" style="stroke: black; fill: black;"/><path d="M 352.90,321.02 C 352.65 321.42, 352.69 321.88, 352.22 323.10 C 351.74 324.31, 351.35 325.27, 350.52 327.09 C 349.69 328.90, 349.08 330.22, 348.06 332.17 C 347.04 334.11, 346.28 335.27, 345.43 336.79 C 344.59 338.31, 344.19 339.00, 343.84 339.77 C 343.49 340.55, 343.63 340.57, 343.68 340.67 C 343.74 340.78, 344.06 340.42, 344.11 340.32 C 344.15 340.22, 343.97 340.10, 343.89 340.19 C 343.82 340.27, 343.59 340.72, 343.74 340.75 C 343.89 340.77, 344.03 340.95, 344.65 340.34 C 345.26 339.72, 345.80 339.12, 346.82 337.67 C 347.85 336.21, 348.68 335.05, 349.77 333.08 C 350.85 331.11, 351.50 329.74, 352.25 327.81 C 352.99 325.89, 353.27 324.80, 353.51 323.46 C 353.75 322.12, 353.58 321.59, 353.45 321.10 C 353.33 320.61, 353.15 320.62, 352.90 321.02" style="stroke: black; fill: black;"/><path d="M 361.76,297.66 C 361.90 297.44, 361.85 296.83, 361.69 296.64 C 361.52 296.45, 361.08 296.48, 360.95 296.70 C 360.82 296.91, 360.86 297.52, 361.03 297.71 C 361.19 297.90, 361.63 297.87, 361.76 297.66" style="stroke: black; fill: black;"/><path d="M 378.84,321.07 C 378.48 320.80, 377.94 320.49, 376.89 320.33 C 375.85 320.18, 375.13 320.05, 373.62 320.29 C 372.12 320.53, 371.12 320.73, 369.38 321.53 C 367.65 322.32, 366.68 322.97, 364.96 324.26 C 363.23 325.54, 362.21 326.43, 360.77 327.96 C 359.33 329.48, 358.54 330.41, 357.74 331.90 C 356.95 333.39, 356.73 334.23, 356.81 335.41 C 356.89 336.60, 357.17 337.20, 358.16 337.83 C 359.16 338.46, 360.00 338.70, 361.77 338.56 C 363.55 338.42, 364.77 338.05, 367.03 337.12 C 369.29 336.19, 370.60 335.42, 373.06 333.92 C 375.53 332.42, 376.99 331.31, 379.34 329.63 C 381.70 327.96, 383.14 326.85, 384.84 325.56 C 386.53 324.26, 387.25 323.58, 387.82 323.15 C 388.39 322.71, 388.18 322.73, 387.68 323.39 C 387.17 324.05, 386.39 324.88, 385.28 326.43 C 384.17 327.99, 383.22 329.24, 382.13 331.17 C 381.03 333.09, 380.44 334.35, 379.80 336.08 C 379.17 337.81, 379.12 338.63, 378.96 339.83 C 378.80 341.03, 378.84 341.43, 378.99 342.08 C 379.15 342.72, 379.52 342.89, 379.73 343.05 C 379.94 343.21, 380.03 343.09, 380.03 342.88 C 380.03 342.67, 379.71 342.56, 379.73 342.00 C 379.75 341.43, 379.82 341.13, 380.13 340.07 C 380.44 339.01, 380.52 338.27, 381.28 336.70 C 382.04 335.13, 382.83 334.08, 383.94 332.22 C 385.05 330.35, 385.93 329.08, 386.82 327.38 C 387.71 325.67, 388.23 324.64, 388.39 323.68 C 388.54 322.72, 388.48 322.44, 387.60 322.56 C 386.72 322.68, 385.81 323.15, 383.97 324.28 C 382.12 325.42, 380.72 326.60, 378.36 328.23 C 376.00 329.86, 374.56 330.97, 372.16 332.43 C 369.76 333.88, 368.46 334.58, 366.34 335.51 C 364.23 336.44, 363.12 336.80, 361.58 337.09 C 360.04 337.38, 359.39 337.31, 358.64 336.98 C 357.88 336.64, 357.74 336.28, 357.80 335.40 C 357.87 334.53, 358.13 333.88, 358.96 332.62 C 359.79 331.36, 360.55 330.51, 361.96 329.11 C 363.36 327.71, 364.35 326.84, 365.98 325.63 C 367.61 324.43, 368.52 323.83, 370.10 323.08 C 371.69 322.34, 372.58 322.19, 373.92 321.91 C 375.26 321.62, 375.86 321.70, 376.82 321.65 C 377.78 321.61, 378.32 321.80, 378.72 321.68 C 379.13 321.56, 379.21 321.34, 378.84 321.07" style="stroke: black; fill: black;"/><path d="M 459.16,290.97 C 458.93 291.28, 458.90 291.61, 458.53 292.63 C 458.17 293.66, 457.96 294.31, 457.33 296.08 C 456.70 297.85, 456.31 299.01, 455.37 301.49 C 454.43 303.96, 453.89 305.53, 452.62 308.46 C 451.35 311.40, 450.54 313.11, 449.02 316.16 C 447.50 319.20, 446.57 320.93, 445.02 323.70 C 443.46 326.47, 442.56 327.94, 441.24 330.01 C 439.93 332.07, 439.32 332.92, 438.45 334.02 C 437.58 335.12, 437.29 335.18, 436.91 335.51 C 436.53 335.83, 436.58 335.71, 436.55 335.63 C 436.52 335.54, 436.79 335.21, 436.75 335.09 C 436.71 334.97, 436.43 334.87, 436.34 335.01 C 436.25 335.16, 436.12 335.59, 436.29 335.81 C 436.47 336.02, 436.62 336.28, 437.22 336.07 C 437.82 335.86, 438.24 335.82, 439.28 334.76 C 440.33 333.70, 441.06 332.87, 442.45 330.79 C 443.84 328.72, 444.68 327.18, 446.24 324.38 C 447.80 321.58, 448.69 319.83, 450.24 316.77 C 451.80 313.71, 452.64 312.01, 454.00 309.08 C 455.36 306.16, 456.06 304.64, 457.05 302.14 C 458.04 299.64, 458.41 298.45, 458.95 296.61 C 459.49 294.76, 459.59 294.04, 459.74 292.93 C 459.89 291.82, 459.81 291.45, 459.70 291.06 C 459.58 290.66, 459.39 290.65, 459.16 290.97" style="stroke: black; fill: black;"/><path d="M 449.46,292.60 C 449.66 292.50, 449.57 292.29, 449.95 291.94 C 450.32 291.58, 450.45 291.32, 451.34 290.83 C 452.23 290.33, 452.80 289.97, 454.40 289.45 C 455.99 288.93, 457.19 288.63, 459.31 288.21 C 461.42 287.79, 462.81 287.55, 464.99 287.35 C 467.16 287.16, 468.40 287.09, 470.18 287.24 C 471.95 287.39, 472.84 287.56, 473.87 288.12 C 474.89 288.67, 475.20 288.98, 475.30 290.01 C 475.40 291.03, 475.15 291.77, 474.35 293.23 C 473.56 294.70, 472.91 295.64, 471.33 297.33 C 469.75 299.02, 468.52 299.98, 466.45 301.70 C 464.37 303.42, 462.99 304.46, 460.98 305.93 C 458.96 307.41, 457.91 308.08, 456.38 309.07 C 454.85 310.06, 454.13 310.32, 453.33 310.87 C 452.53 311.42, 452.30 311.59, 452.37 311.83 C 452.43 312.06, 452.81 312.06, 453.64 312.04 C 454.48 312.03, 455.21 311.89, 456.55 311.75 C 457.88 311.61, 458.82 311.40, 460.33 311.34 C 461.83 311.28, 462.72 311.18, 464.09 311.43 C 465.45 311.68, 466.13 311.90, 467.16 312.59 C 468.18 313.28, 468.67 313.77, 469.21 314.88 C 469.74 315.98, 469.94 316.70, 469.83 318.11 C 469.73 319.52, 469.55 320.32, 468.70 321.92 C 467.85 323.51, 467.15 324.41, 465.58 326.08 C 464.02 327.75, 462.98 328.67, 460.88 330.25 C 458.78 331.82, 457.42 332.67, 455.09 333.96 C 452.76 335.25, 451.50 335.89, 449.23 336.70 C 446.96 337.51, 445.70 337.78, 443.75 338.01 C 441.79 338.24, 440.79 338.20, 439.45 337.86 C 438.11 337.52, 437.68 337.05, 437.05 336.29 C 436.42 335.53, 436.44 334.91, 436.28 334.05 C 436.12 333.20, 436.39 332.43, 436.27 332.01 C 436.14 331.59, 435.89 331.51, 435.67 331.95 C 435.46 332.39, 435.08 333.19, 435.19 334.21 C 435.29 335.22, 435.40 336.04, 436.18 337.00 C 436.97 337.96, 437.58 338.55, 439.12 339.03 C 440.66 339.50, 441.77 339.58, 443.89 339.40 C 446.01 339.21, 447.33 338.93, 449.72 338.12 C 452.12 337.31, 453.43 336.67, 455.86 335.36 C 458.29 334.06, 459.69 333.22, 461.88 331.58 C 464.06 329.94, 465.14 328.98, 466.78 327.18 C 468.41 325.39, 469.16 324.41, 470.06 322.61 C 470.95 320.81, 471.16 319.85, 471.23 318.19 C 471.30 316.52, 471.07 315.63, 470.41 314.29 C 469.75 312.95, 469.14 312.35, 467.94 311.48 C 466.74 310.61, 465.95 310.33, 464.42 309.93 C 462.89 309.53, 461.93 309.49, 460.30 309.48 C 458.66 309.46, 457.64 309.57, 456.25 309.85 C 454.86 310.14, 454.12 310.50, 453.35 310.90 C 452.58 311.29, 452.33 311.67, 452.41 311.84 C 452.49 312.01, 452.82 312.05, 453.76 311.73 C 454.69 311.42, 455.46 311.17, 457.10 310.28 C 458.73 309.39, 459.83 308.72, 461.93 307.28 C 464.03 305.84, 465.45 304.83, 467.58 303.07 C 469.72 301.31, 470.99 300.33, 472.61 298.49 C 474.23 296.65, 474.92 295.59, 475.66 293.86 C 476.40 292.14, 476.57 291.20, 476.33 289.86 C 476.08 288.52, 475.64 287.99, 474.45 287.18 C 473.25 286.36, 472.28 286.08, 470.36 285.77 C 468.44 285.46, 467.15 285.51, 464.86 285.64 C 462.58 285.76, 461.17 285.97, 458.95 286.39 C 456.74 286.81, 455.50 287.10, 453.80 287.72 C 452.10 288.34, 451.42 288.78, 450.46 289.49 C 449.51 290.19, 449.32 290.68, 449.02 291.27 C 448.71 291.86, 448.86 292.18, 448.95 292.45 C 449.04 292.71, 449.26 292.70, 449.46 292.60" style="stroke: black; fill: black;"/><path d="M 487.04,316.81 C 486.71 316.90, 486.45 316.95, 485.76 317.60 C 485.06 318.26, 484.54 318.75, 483.57 320.07 C 482.60 321.39, 481.93 322.34, 480.91 324.19 C 479.88 326.04, 479.33 327.41, 478.45 329.34 C 477.57 331.27, 477.10 332.36, 476.52 333.85 C 475.95 335.34, 475.67 336.06, 475.56 336.80 C 475.46 337.55, 475.60 337.77, 476.01 337.56 C 476.42 337.35, 476.74 336.93, 477.61 335.75 C 478.49 334.57, 479.08 333.52, 480.40 331.66 C 481.73 329.80, 482.55 328.50, 484.23 326.44 C 485.92 324.38, 486.93 323.22, 488.83 321.36 C 490.72 319.51, 491.83 318.56, 493.71 317.17 C 495.59 315.78, 496.59 315.24, 498.23 314.41 C 499.87 313.57, 500.65 313.33, 501.93 313.00 C 503.21 312.66, 503.77 312.79, 504.61 312.74 C 505.45 312.68, 505.67 312.71, 506.13 312.72 C 506.60 312.72, 506.74 312.81, 506.92 312.75 C 507.10 312.69, 507.16 312.58, 507.02 312.42 C 506.89 312.26, 506.75 312.12, 506.26 311.97 C 505.78 311.81, 505.52 311.66, 504.59 311.63 C 503.67 311.60, 503.03 311.48, 501.64 311.79 C 500.25 312.10, 499.39 312.36, 497.63 313.19 C 495.87 314.02, 494.83 314.56, 492.84 315.96 C 490.85 317.36, 489.70 318.32, 487.70 320.18 C 485.70 322.04, 484.63 323.20, 482.84 325.27 C 481.05 327.34, 480.08 328.58, 478.76 330.52 C 477.45 332.46, 476.90 333.59, 476.27 334.96 C 475.65 336.32, 475.63 336.89, 475.64 337.33 C 475.64 337.76, 475.84 337.69, 476.30 337.12 C 476.76 336.55, 477.18 335.90, 477.94 334.50 C 478.69 333.10, 479.14 331.99, 480.08 330.11 C 481.01 328.23, 481.60 326.93, 482.60 325.12 C 483.60 323.32, 484.24 322.42, 485.06 321.08 C 485.89 319.73, 486.26 319.18, 486.73 318.40 C 487.20 317.62, 487.35 317.49, 487.41 317.17 C 487.47 316.86, 487.37 316.73, 487.04 316.81" style="stroke: black; fill: black;"/><path d="M 524.30,313.63 C 524.24 313.35, 524.14 312.95, 523.60 312.63 C 523.05 312.30, 522.67 312.00, 521.58 312.00 C 520.49 312.01, 519.73 312.02, 518.16 312.67 C 516.58 313.31, 515.57 313.94, 513.71 315.24 C 511.84 316.55, 510.64 317.49, 508.83 319.20 C 507.01 320.90, 506.06 321.93, 504.64 323.77 C 503.21 325.61, 502.46 326.66, 501.70 328.39 C 500.94 330.12, 500.81 331.09, 500.85 332.41 C 500.90 333.74, 501.12 334.33, 501.94 335.01 C 502.76 335.70, 503.46 335.93, 504.96 335.84 C 506.46 335.76, 507.50 335.44, 509.44 334.58 C 511.39 333.71, 512.55 332.98, 514.69 331.51 C 516.82 330.04, 518.08 328.99, 520.14 327.23 C 522.20 325.46, 523.30 324.40, 524.96 322.68 C 526.62 320.96, 527.56 319.93, 528.44 318.65 C 529.31 317.37, 529.46 316.64, 529.35 316.28 C 529.23 315.91, 528.74 316.01, 527.86 316.81 C 526.97 317.61, 526.17 318.56, 524.90 320.28 C 523.63 321.99, 522.65 323.34, 521.52 325.38 C 520.39 327.42, 519.66 328.77, 519.24 330.49 C 518.83 332.20, 518.83 333.06, 519.45 333.95 C 520.07 334.84, 521.03 334.94, 522.35 334.94 C 523.67 334.94, 524.75 334.50, 526.06 333.93 C 527.36 333.36, 528.38 332.61, 528.87 332.11 C 529.37 331.61, 529.23 331.36, 528.54 331.42 C 527.86 331.48, 526.72 331.96, 525.46 332.42 C 524.19 332.88, 523.31 333.49, 522.23 333.71 C 521.16 333.93, 520.42 334.08, 520.09 333.52 C 519.76 332.97, 519.94 332.36, 520.58 330.94 C 521.23 329.52, 522.13 328.35, 523.32 326.44 C 524.51 324.53, 525.47 323.17, 526.55 321.38 C 527.63 319.59, 528.20 318.51, 528.72 317.48 C 529.24 316.44, 529.40 316.14, 529.14 316.21 C 528.89 316.29, 528.53 316.78, 527.47 317.84 C 526.40 318.91, 525.51 319.92, 523.82 321.53 C 522.14 323.15, 521.07 324.23, 519.04 325.93 C 517.01 327.63, 515.74 328.62, 513.68 330.04 C 511.61 331.46, 510.49 332.14, 508.71 333.04 C 506.94 333.93, 506.04 334.27, 504.79 334.53 C 503.55 334.79, 503.06 334.74, 502.49 334.32 C 501.91 333.91, 501.84 333.50, 501.94 332.43 C 502.04 331.37, 502.18 330.53, 502.97 328.99 C 503.76 327.46, 504.47 326.46, 505.88 324.76 C 507.29 323.06, 508.24 322.09, 510.02 320.49 C 511.79 318.89, 513.00 318.00, 514.77 316.76 C 516.54 315.51, 517.48 314.91, 518.86 314.26 C 520.24 313.61, 520.82 313.62, 521.68 313.50 C 522.53 313.39, 522.69 313.56, 523.14 313.67 C 523.58 313.78, 523.66 314.06, 523.89 314.06 C 524.12 314.05, 524.36 313.92, 524.30 313.63" style="stroke: black; fill: black;"/><path d="M 548.99,315.91 C 548.66 316.20, 548.46 316.58, 547.87 317.59 C 547.29 318.60, 546.84 319.36, 546.06 320.95 C 545.29 322.54, 544.76 323.66, 544.01 325.55 C 543.27 327.44, 542.77 328.67, 542.34 330.42 C 541.91 332.17, 541.75 333.07, 541.86 334.32 C 541.97 335.56, 542.20 336.05, 542.90 336.66 C 543.59 337.27, 544.13 337.49, 545.33 337.37 C 546.53 337.24, 547.34 336.90, 548.90 336.03 C 550.47 335.15, 551.34 334.43, 553.14 332.99 C 554.95 331.54, 556.00 330.59, 557.91 328.80 C 559.83 327.00, 561.09 325.74, 562.71 324.01 C 564.32 322.27, 565.08 321.28, 565.98 320.13 C 566.88 318.98, 567.10 318.51, 567.20 318.26 C 567.29 318.00, 567.06 318.12, 566.47 318.87 C 565.88 319.63, 565.17 320.45, 564.26 322.02 C 563.34 323.59, 562.71 324.89, 561.89 326.73 C 561.07 328.57, 560.56 329.70, 560.16 331.22 C 559.77 332.74, 559.86 333.67, 559.91 334.31 C 559.95 334.96, 560.10 334.95, 560.40 334.42 C 560.71 333.90, 560.76 333.05, 561.43 331.69 C 562.10 330.33, 562.84 329.38, 563.76 327.63 C 564.67 325.87, 565.28 324.58, 566.01 322.91 C 566.74 321.25, 567.18 320.29, 567.39 319.30 C 567.61 318.31, 567.54 317.99, 567.08 317.98 C 566.61 317.97, 566.19 318.29, 565.07 319.26 C 563.95 320.23, 563.15 321.17, 561.48 322.81 C 559.80 324.46, 558.58 325.72, 556.69 327.49 C 554.80 329.25, 553.76 330.19, 552.03 331.62 C 550.30 333.04, 549.43 333.69, 548.04 334.61 C 546.66 335.52, 546.02 335.90, 545.10 336.19 C 544.18 336.48, 543.86 336.42, 543.44 336.05 C 543.03 335.67, 542.94 335.34, 543.03 334.31 C 543.12 333.27, 543.36 332.48, 543.91 330.88 C 544.46 329.27, 545.01 328.10, 545.77 326.26 C 546.53 324.43, 547.06 323.32, 547.73 321.69 C 548.39 320.07, 548.74 319.25, 549.10 318.14 C 549.46 317.02, 549.54 316.57, 549.51 316.13 C 549.49 315.68, 549.32 315.61, 548.99 315.91" style="stroke: black; fill: black;"/><path d="M 576.03,331.03 C 576.41 331.13, 576.83 331.18, 577.80 330.97 C 578.76 330.76, 579.39 330.57, 580.85 329.98 C 582.31 329.39, 583.23 328.99, 585.09 328.02 C 586.96 327.05, 588.07 326.38, 590.18 325.14 C 592.29 323.91, 593.58 323.17, 595.64 321.83 C 597.69 320.50, 598.80 319.72, 600.46 318.46 C 602.12 317.21, 602.99 316.68, 603.93 315.56 C 604.87 314.44, 605.09 313.78, 605.18 312.87 C 605.26 311.95, 605.14 311.50, 604.36 310.99 C 603.58 310.47, 602.88 310.27, 601.27 310.31 C 599.67 310.35, 598.53 310.45, 596.32 311.19 C 594.11 311.93, 592.67 312.55, 590.23 314.02 C 587.78 315.50, 586.29 316.63, 584.09 318.56 C 581.89 320.50, 580.71 321.68, 579.21 323.70 C 577.71 325.72, 577.06 326.86, 576.59 328.67 C 576.12 330.48, 576.14 331.43, 576.86 332.75 C 577.59 334.07, 578.38 334.58, 580.20 335.28 C 582.03 335.97, 583.66 336.18, 585.99 336.24 C 588.32 336.30, 589.83 335.97, 591.87 335.58 C 593.91 335.20, 595.34 334.69, 596.18 334.31 C 597.02 333.94, 596.97 333.75, 596.07 333.70 C 595.17 333.65, 593.68 333.91, 591.67 334.06 C 589.66 334.21, 588.23 334.47, 586.02 334.44 C 583.82 334.42, 582.30 334.38, 580.63 333.95 C 578.97 333.51, 578.29 333.27, 577.70 332.28 C 577.12 331.29, 577.18 330.55, 577.72 329.02 C 578.26 327.48, 578.91 326.46, 580.40 324.62 C 581.89 322.78, 583.02 321.63, 585.17 319.82 C 587.32 318.01, 588.80 316.96, 591.15 315.57 C 593.50 314.18, 594.86 313.63, 596.92 312.89 C 598.97 312.14, 600.00 312.05, 601.41 311.82 C 602.82 311.60, 603.38 311.58, 603.97 311.76 C 604.56 311.95, 604.56 312.13, 604.37 312.72 C 604.19 313.31, 603.99 313.81, 603.03 314.71 C 602.07 315.62, 601.23 316.10, 599.58 317.24 C 597.92 318.38, 596.80 319.15, 594.74 320.43 C 592.69 321.71, 591.40 322.43, 589.30 323.64 C 587.21 324.84, 586.10 325.48, 584.27 326.44 C 582.44 327.40, 581.54 327.76, 580.16 328.43 C 578.79 329.09, 578.24 329.35, 577.39 329.76 C 576.53 330.17, 576.17 330.22, 575.90 330.47 C 575.63 330.72, 575.65 330.93, 576.03 331.03" style="stroke: black; fill: black;"/><path d="M 622.70,320.64 C 622.16 320.87, 621.45 321.31, 620.43 322.24 C 619.42 323.16, 618.68 323.92, 617.62 325.27 C 616.56 326.62, 615.97 327.52, 615.14 328.98 C 614.31 330.45, 614.00 331.42, 613.48 332.60 C 612.96 333.77, 612.82 334.23, 612.55 334.87 C 612.27 335.50, 612.08 335.71, 612.11 335.77 C 612.15 335.83, 612.33 335.74, 612.73 335.17 C 613.13 334.59, 613.43 334.08, 614.11 332.90 C 614.80 331.71, 615.16 330.79, 616.16 329.24 C 617.17 327.68, 617.82 326.77, 619.16 325.12 C 620.49 323.47, 621.27 322.52, 622.83 320.99 C 624.39 319.46, 625.34 318.66, 626.96 317.46 C 628.59 316.25, 629.40 315.77, 630.95 314.98 C 632.50 314.19, 633.24 313.89, 634.71 313.52 C 636.18 313.15, 637.06 313.20, 638.29 313.11 C 639.52 313.02, 639.97 313.07, 640.87 313.09 C 641.76 313.10, 642.36 313.26, 642.75 313.18 C 643.15 313.10, 643.21 312.92, 642.86 312.68 C 642.50 312.45, 641.91 312.20, 640.99 312.01 C 640.06 311.83, 639.55 311.72, 638.23 311.75 C 636.90 311.78, 635.95 311.78, 634.37 312.18 C 632.79 312.57, 631.99 312.93, 630.33 313.74 C 628.67 314.55, 627.81 315.02, 626.08 316.24 C 624.36 317.45, 623.36 318.26, 621.71 319.82 C 620.06 321.38, 619.26 322.36, 617.84 324.04 C 616.42 325.71, 615.68 326.61, 614.61 328.22 C 613.54 329.82, 613.09 330.76, 612.50 332.07 C 611.91 333.38, 611.73 333.98, 611.64 334.78 C 611.55 335.57, 611.70 335.89, 612.05 336.03 C 612.40 336.16, 612.84 336.01, 613.40 335.46 C 613.95 334.91, 614.15 334.39, 614.80 333.27 C 615.45 332.16, 615.80 331.25, 616.65 329.86 C 617.49 328.47, 618.05 327.65, 619.02 326.32 C 619.98 325.00, 620.67 324.27, 621.49 323.22 C 622.31 322.18, 622.89 321.62, 623.13 321.10 C 623.38 320.59, 623.24 320.42, 622.70 320.64" style="stroke: black; fill: black;"/><path d="M 647.73,315.25 C 648.19 315.43, 648.79 315.46, 650.00 315.51 C 651.21 315.57, 652.12 315.56, 653.78 315.51 C 655.44 315.46, 656.55 315.31, 658.29 315.25 C 660.03 315.19, 660.95 315.13, 662.48 315.22 C 664.01 315.31, 664.72 315.49, 665.95 315.71 C 667.18 315.92, 667.78 316.06, 668.63 316.29 C 669.48 316.52, 669.72 316.69, 670.19 316.85 C 670.65 317.01, 670.76 317.09, 670.96 317.09 C 671.15 317.08, 671.22 317.01, 671.15 316.82 C 671.08 316.62, 671.03 316.46, 670.60 316.12 C 670.18 315.77, 669.92 315.44, 669.04 315.09 C 668.16 314.73, 667.50 314.61, 666.21 314.34 C 664.93 314.06, 664.20 313.88, 662.61 313.71 C 661.02 313.53, 660.05 313.48, 658.26 313.48 C 656.48 313.48, 655.35 313.59, 653.68 313.72 C 652.01 313.84, 651.12 313.94, 649.93 314.13 C 648.73 314.31, 648.14 314.42, 647.70 314.65 C 647.26 314.87, 647.27 315.08, 647.73 315.25" style="stroke: black; fill: black;"/><path d="M 708.22,290.72 C 707.83 290.97, 707.54 291.36, 706.75 292.28 C 705.97 293.20, 705.49 293.79, 704.30 295.34 C 703.11 296.89, 702.37 297.84, 700.82 300.02 C 699.27 302.21, 698.47 303.65, 696.57 306.25 C 694.68 308.86, 693.49 310.31, 691.34 313.05 C 689.18 315.79, 687.89 317.42, 685.80 319.96 C 683.72 322.50, 682.57 323.69, 680.92 325.75 C 679.26 327.81, 678.49 328.82, 677.53 330.27 C 676.57 331.72, 676.25 332.28, 676.12 333.01 C 675.98 333.73, 676.21 333.82, 676.86 333.89 C 677.50 333.95, 678.12 333.83, 679.35 333.35 C 680.58 332.86, 681.32 332.46, 683.00 331.44 C 684.68 330.43, 685.67 329.67, 687.75 328.27 C 689.84 326.86, 691.06 326.04, 693.41 324.42 C 695.76 322.80, 697.00 321.97, 699.49 320.18 C 701.98 318.38, 703.37 317.39, 705.85 315.43 C 708.32 313.47, 709.71 312.23, 711.84 310.38 C 713.97 308.52, 714.96 307.54, 716.49 306.17 C 718.02 304.80, 718.96 304.12, 719.51 303.51 C 720.05 302.90, 719.96 302.77, 719.21 303.12 C 718.46 303.47, 717.43 304.04, 715.76 305.26 C 714.08 306.47, 713.00 307.39, 710.84 309.20 C 708.68 311.01, 707.39 312.36, 704.95 314.32 C 702.52 316.28, 701.14 317.24, 698.65 318.99 C 696.16 320.74, 694.88 321.51, 692.50 323.08 C 690.13 324.64, 688.88 325.44, 686.78 326.80 C 684.69 328.17, 683.65 328.84, 682.03 329.88 C 680.40 330.92, 679.72 331.32, 678.66 332.00 C 677.61 332.68, 677.15 333.02, 676.75 333.27 C 676.36 333.52, 676.33 333.70, 676.69 333.24 C 677.04 332.79, 677.46 332.32, 678.53 331.00 C 679.60 329.69, 680.38 328.70, 682.04 326.66 C 683.71 324.62, 684.78 323.37, 686.85 320.81 C 688.92 318.26, 690.21 316.62, 692.39 313.89 C 694.58 311.16, 695.79 309.71, 697.76 307.15 C 699.74 304.58, 700.68 303.22, 702.25 301.05 C 703.83 298.89, 704.54 297.93, 705.65 296.32 C 706.76 294.71, 707.19 294.07, 707.80 293.01 C 708.40 291.96, 708.61 291.50, 708.69 291.05 C 708.78 290.59, 708.60 290.48, 708.22 290.72" style="stroke: black; fill: black;"/><path d="M 725.03,299.71 C 724.75 299.67, 724.55 299.73, 723.87 300.01 C 723.20 300.28, 722.82 300.33, 721.66 301.06 C 720.50 301.80, 719.56 302.39, 718.08 303.70 C 716.60 305.00, 715.87 305.80, 714.28 307.60 C 712.69 309.40, 711.71 310.56, 710.14 312.70 C 708.57 314.83, 707.70 316.06, 706.43 318.28 C 705.16 320.49, 704.60 321.74, 703.79 323.76 C 702.98 325.77, 702.60 326.78, 702.39 328.35 C 702.18 329.92, 702.21 330.58, 702.76 331.62 C 703.31 332.65, 703.84 333.11, 705.14 333.53 C 706.44 333.95, 707.59 333.88, 709.27 333.73 C 710.94 333.58, 712.03 333.24, 713.53 332.76 C 715.02 332.28, 716.14 331.75, 716.75 331.34 C 717.35 330.93, 717.28 330.74, 716.56 330.71 C 715.84 330.68, 714.64 330.94, 713.14 331.20 C 711.64 331.46, 710.61 331.77, 709.06 332.00 C 707.52 332.22, 706.53 332.48, 705.44 332.32 C 704.34 332.16, 703.95 331.95, 703.58 331.19 C 703.21 330.44, 703.27 329.93, 703.58 328.56 C 703.89 327.19, 704.30 326.23, 705.14 324.33 C 705.99 322.43, 706.54 321.21, 707.81 319.08 C 709.07 316.96, 709.94 315.77, 711.49 313.70 C 713.04 311.64, 714.02 310.48, 715.58 308.75 C 717.13 307.02, 717.87 306.31, 719.28 305.05 C 720.70 303.80, 721.62 303.29, 722.66 302.48 C 723.69 301.67, 723.94 301.45, 724.47 300.99 C 725.00 300.53, 725.19 300.44, 725.30 300.18 C 725.41 299.92, 725.32 299.74, 725.03 299.71" style="stroke: black; fill: black;"/><path d="M 747.75,314.05 C 747.59 313.76, 747.36 313.48, 746.69 313.13 C 746.03 312.78, 745.54 312.43, 744.42 312.31 C 743.30 312.19, 742.57 312.12, 741.10 312.53 C 739.63 312.94, 738.76 313.31, 737.08 314.36 C 735.40 315.42, 734.38 316.26, 732.70 317.80 C 731.02 319.35, 730.05 320.33, 728.66 322.07 C 727.27 323.82, 726.48 324.91, 725.76 326.53 C 725.04 328.15, 724.87 328.99, 725.06 330.16 C 725.25 331.33, 725.67 331.84, 726.71 332.38 C 727.75 332.92, 728.53 333.04, 730.25 332.85 C 731.96 332.66, 733.19 332.34, 735.30 331.45 C 737.42 330.56, 738.72 329.80, 740.82 328.40 C 742.92 326.99, 744.00 326.04, 745.79 324.43 C 747.58 322.82, 748.51 321.93, 749.79 320.34 C 751.06 318.76, 751.61 317.84, 752.16 316.52 C 752.70 315.20, 752.65 314.58, 752.52 313.74 C 752.39 312.91, 752.02 312.66, 751.51 312.36 C 751.01 312.05, 750.33 312.13, 750.02 312.22 C 749.70 312.31, 749.72 312.63, 749.94 312.79 C 750.16 312.95, 750.78 312.80, 751.12 313.01 C 751.46 313.21, 751.67 313.22, 751.65 313.81 C 751.63 314.41, 751.63 314.87, 751.03 315.99 C 750.44 317.11, 749.92 317.95, 748.66 319.40 C 747.40 320.85, 746.50 321.73, 744.74 323.23 C 742.98 324.74, 741.89 325.63, 739.86 326.94 C 737.83 328.26, 736.56 328.92, 734.59 329.80 C 732.61 330.69, 731.50 331.03, 730.01 331.37 C 728.51 331.71, 727.90 331.75, 727.10 331.49 C 726.30 331.23, 726.02 330.93, 726.01 330.06 C 725.99 329.20, 726.24 328.55, 727.03 327.17 C 727.82 325.78, 728.59 324.76, 729.96 323.14 C 731.33 321.53, 732.27 320.56, 733.88 319.10 C 735.49 317.63, 736.47 316.80, 738.00 315.80 C 739.53 314.80, 740.29 314.47, 741.55 314.09 C 742.81 313.70, 743.35 313.84, 744.29 313.89 C 745.22 313.94, 745.59 314.22, 746.23 314.36 C 746.87 314.50, 747.18 314.64, 747.49 314.58 C 747.79 314.52, 747.91 314.34, 747.75 314.05" style="stroke: black; fill: black;"/><path d="M 770.89,313.79 C 770.61 313.91, 770.48 314.00, 769.93 314.68 C 769.37 315.36, 768.99 315.89, 768.12 317.18 C 767.25 318.47, 766.64 319.43, 765.57 321.13 C 764.51 322.82, 763.85 324.00, 762.80 325.64 C 761.74 327.28, 761.08 328.12, 760.30 329.31 C 759.52 330.51, 759.07 331.09, 758.91 331.62 C 758.75 332.14, 758.89 332.35, 759.50 331.93 C 760.10 331.50, 760.66 330.83, 761.93 329.47 C 763.19 328.12, 764.08 327.07, 765.83 325.16 C 767.58 323.24, 768.70 321.95, 770.69 319.90 C 772.67 317.84, 773.81 316.65, 775.75 314.89 C 777.69 313.13, 778.74 312.31, 780.39 311.08 C 782.04 309.86, 782.83 309.39, 784.01 308.78 C 785.18 308.18, 785.71 308.02, 786.27 308.06 C 786.83 308.10, 786.91 308.31, 786.80 308.98 C 786.69 309.66, 786.35 310.15, 785.71 311.42 C 785.07 312.69, 784.52 313.60, 783.60 315.36 C 782.69 317.11, 782.01 318.36, 781.15 320.20 C 780.29 322.04, 779.85 323.05, 779.29 324.56 C 778.73 326.07, 778.55 326.81, 778.36 327.75 C 778.18 328.69, 778.31 328.94, 778.38 329.26 C 778.45 329.57, 778.53 329.56, 778.71 329.32 C 778.88 329.07, 778.85 328.87, 779.25 328.04 C 779.64 327.20, 779.98 326.57, 780.68 325.16 C 781.39 323.76, 781.84 322.79, 782.76 321.00 C 783.69 319.21, 784.44 318.02, 785.32 316.22 C 786.21 314.43, 786.71 313.48, 787.19 312.03 C 787.67 310.58, 787.88 309.90, 787.73 308.96 C 787.58 308.02, 787.26 307.58, 786.42 307.33 C 785.58 307.08, 784.90 307.18, 783.53 307.71 C 782.16 308.23, 781.34 308.74, 779.57 309.94 C 777.81 311.13, 776.72 311.95, 774.70 313.70 C 772.67 315.45, 771.53 316.65, 769.46 318.67 C 767.38 320.69, 766.12 321.85, 764.34 323.79 C 762.56 325.72, 761.65 326.81, 760.55 328.34 C 759.45 329.88, 759.09 330.72, 758.85 331.46 C 758.61 332.19, 758.81 332.25, 759.35 332.01 C 759.88 331.77, 760.52 331.33, 761.51 330.25 C 762.49 329.18, 763.13 328.26, 764.27 326.64 C 765.42 325.03, 766.15 323.88, 767.23 322.18 C 768.32 320.48, 768.94 319.52, 769.69 318.14 C 770.45 316.77, 770.68 316.13, 771.00 315.31 C 771.33 314.49, 771.34 314.34, 771.32 314.04 C 771.29 313.74, 771.17 313.66, 770.89 313.79" style="stroke: black; fill: black;"/><path d="M 807.35,310.17 C 807.09 310.42, 807.09 310.71, 806.56 311.56 C 806.03 312.41, 805.49 312.98, 804.70 314.41 C 803.92 315.85, 803.43 317.00, 802.64 318.73 C 801.86 320.46, 801.39 321.56, 800.79 323.07 C 800.20 324.58, 799.98 325.28, 799.67 326.27 C 799.37 327.26, 799.27 327.64, 799.27 328.03 C 799.26 328.41, 799.36 328.45, 799.63 328.18 C 799.90 327.92, 800.09 327.58, 800.62 326.69 C 801.15 325.81, 801.54 325.19, 802.30 323.76 C 803.06 322.33, 803.60 321.26, 804.42 319.55 C 805.23 317.85, 805.71 316.73, 806.38 315.24 C 807.04 313.75, 807.45 313.08, 807.74 312.09 C 808.04 311.11, 807.95 310.71, 807.87 310.32 C 807.79 309.94, 807.61 309.92, 807.35 310.17" style="stroke: black; fill: black;"/><path d="M 818.79,290.70 C 818.61 290.75, 818.54 290.70, 818.38 290.86 C 818.21 291.03, 817.91 291.28, 817.98 291.54 C 818.05 291.80, 818.39 292.11, 818.72 292.18 C 819.05 292.25, 819.39 292.07, 819.65 291.90 C 819.91 291.74, 820.01 291.55, 820.04 291.35 C 820.06 291.16, 819.93 291.07, 819.79 290.93 C 819.64 290.78, 819.49 290.67, 819.29 290.62 C 819.10 290.58, 818.98 290.66, 818.79 290.70" style="stroke: black; fill: black;"/><path d="M 844.33,282.91 C 843.98 283.28, 843.75 283.74, 843.15 284.94 C 842.55 286.15, 842.21 286.98, 841.33 288.93 C 840.44 290.89, 839.87 292.17, 838.74 294.73 C 837.61 297.29, 837.00 298.83, 835.69 301.72 C 834.39 304.62, 833.67 306.25, 832.20 309.21 C 830.74 312.18, 829.84 313.76, 828.38 316.55 C 826.92 319.33, 826.12 320.75, 824.88 323.16 C 823.64 325.57, 823.01 326.72, 822.18 328.58 C 821.35 330.45, 821.10 331.28, 820.75 332.47 C 820.40 333.66, 820.41 334.11, 820.42 334.55 C 820.43 334.98, 820.54 335.00, 820.78 334.65 C 821.02 334.30, 821.09 333.90, 821.61 332.80 C 822.13 331.70, 822.48 330.95, 823.39 329.16 C 824.30 327.37, 824.94 326.23, 826.18 323.83 C 827.42 321.43, 828.15 319.98, 829.60 317.18 C 831.04 314.38, 831.93 312.78, 833.42 309.82 C 834.91 306.85, 835.64 305.22, 837.03 302.35 C 838.42 299.48, 839.19 298.01, 840.36 295.46 C 841.54 292.91, 842.12 291.61, 842.92 289.61 C 843.71 287.60, 843.96 286.71, 844.35 285.42 C 844.73 284.12, 844.86 283.62, 844.86 283.12 C 844.85 282.62, 844.67 282.55, 844.33 282.91" style="stroke: black; fill: black;"/><path d="M 822.50,314.48 C 822.72 314.70, 823.04 314.73, 823.71 315.01 C 824.37 315.30, 824.68 315.60, 825.82 315.92 C 826.96 316.23, 827.94 316.41, 829.40 316.60 C 830.86 316.79, 831.60 316.92, 833.13 316.87 C 834.65 316.82, 836.25 316.62, 837.02 316.37 C 837.80 316.11, 837.78 315.82, 837.01 315.59 C 836.25 315.36, 834.66 315.36, 833.19 315.21 C 831.72 315.05, 831.04 315.00, 829.64 314.80 C 828.25 314.60, 827.34 314.39, 826.21 314.19 C 825.09 313.99, 824.73 313.86, 824.01 313.80 C 823.29 313.74, 822.90 313.75, 822.60 313.89 C 822.30 314.02, 822.28 314.25, 822.50 314.48" style="stroke: black; fill: black;"/><path d="M 855.04,302.73 C 855.43 302.79, 855.87 302.52, 856.73 302.47 C 857.58 302.41, 858.24 302.38, 859.32 302.44 C 860.41 302.49, 861.19 302.49, 862.15 302.75 C 863.10 303.00, 863.62 303.11, 864.09 303.72 C 864.56 304.33, 864.69 304.74, 864.49 305.80 C 864.29 306.86, 863.99 307.52, 863.11 309.02 C 862.23 310.53, 861.47 311.41, 860.10 313.32 C 858.73 315.24, 857.86 316.53, 856.27 318.59 C 854.68 320.65, 853.72 321.73, 852.15 323.64 C 850.59 325.55, 849.68 326.49, 848.45 328.14 C 847.22 329.79, 846.68 330.55, 845.99 331.89 C 845.30 333.23, 845.07 333.75, 845.01 334.85 C 844.96 335.95, 845.12 336.51, 845.72 337.39 C 846.32 338.28, 846.80 338.69, 848.02 339.29 C 849.24 339.89, 850.05 340.04, 851.80 340.39 C 853.54 340.74, 854.66 340.88, 856.73 341.04 C 858.79 341.20, 859.99 341.24, 862.11 341.18 C 864.23 341.13, 865.47 340.99, 867.30 340.77 C 869.13 340.55, 870.01 340.37, 871.26 340.09 C 872.51 339.80, 872.86 339.65, 873.54 339.35 C 874.22 339.05, 874.41 338.85, 874.65 338.58 C 874.88 338.30, 874.75 338.10, 874.72 337.97 C 874.69 337.83, 874.57 337.86, 874.48 337.89 C 874.40 337.92, 874.54 338.02, 874.29 338.12 C 874.04 338.23, 873.88 338.27, 873.23 338.41 C 872.58 338.55, 872.25 338.66, 871.03 338.82 C 869.81 338.98, 868.94 339.09, 867.15 339.22 C 865.36 339.36, 864.14 339.49, 862.08 339.51 C 860.02 339.53, 858.86 339.47, 856.86 339.31 C 854.86 339.16, 853.75 338.99, 852.10 338.73 C 850.44 338.46, 849.68 338.38, 848.58 337.99 C 847.48 337.59, 847.10 337.36, 846.59 336.75 C 846.07 336.14, 845.92 335.78, 846.01 334.93 C 846.11 334.07, 846.34 333.66, 847.06 332.48 C 847.77 331.30, 848.32 330.59, 849.58 329.02 C 850.85 327.46, 851.77 326.53, 853.37 324.66 C 854.98 322.79, 855.99 321.72, 857.63 319.65 C 859.26 317.59, 860.17 316.32, 861.55 314.35 C 862.93 312.38, 863.68 311.47, 864.52 309.79 C 865.37 308.11, 865.67 307.31, 865.77 305.96 C 865.88 304.61, 865.68 303.99, 865.06 303.04 C 864.44 302.10, 863.81 301.72, 862.68 301.24 C 861.54 300.76, 860.64 300.68, 859.39 300.64 C 858.14 300.61, 857.36 300.78, 856.44 301.08 C 855.53 301.38, 855.09 301.82, 854.81 302.15 C 854.53 302.48, 854.66 302.67, 855.04 302.73" style="stroke: black; fill: black;"/><path d="M 860.42,313.97 C 860.72 313.95, 860.77 313.74, 861.58 313.48 C 862.38 313.22, 862.95 313.00, 864.43 312.66 C 865.91 312.32, 866.93 312.04, 868.96 311.80 C 870.99 311.55, 872.35 311.51, 874.57 311.44 C 876.79 311.36, 878.20 311.40, 880.08 311.43 C 881.96 311.47, 882.72 311.52, 883.98 311.61 C 885.23 311.70, 885.85 311.91, 886.34 311.88 C 886.83 311.85, 886.89 311.71, 886.45 311.45 C 886.01 311.18, 885.40 310.88, 884.15 310.56 C 882.89 310.24, 882.09 310.05, 880.17 309.86 C 878.25 309.68, 876.82 309.62, 874.53 309.63 C 872.25 309.65, 870.85 309.67, 868.73 309.93 C 866.62 310.19, 865.50 310.45, 863.96 310.94 C 862.42 311.43, 861.79 311.85, 861.02 312.38 C 860.25 312.90, 860.22 313.25, 860.10 313.57 C 859.98 313.89, 860.13 313.98, 860.42 313.97" style="stroke: black; fill: black;"/></g></svg>